[img]http://img96.imageshack.us/img96/797/scream4poster02.jpg[/img]

[code]
Scream.4.2011.TS.XVID.AC3.HQ.Hive-CM8 Thx Hive
CM8 Doing It Right The First Time

Source: Great new Video from Russian Site, its almost DVD-Quality Thx
Audio: Imagines Line-Audio Thx
Encode: corrected the Aspect, fixed rgb, corrected some overcontrasting,sharpened it and cleaned the audio
And I finally synced the imagine ts audio to the avi, yes its lipsync )
Video: 720x296 @bitrate 1800 2pass
Audio: English AC3 2.0 Stereo
Sample: yes included http://www.imdb.com/title/tt1262416/

General
Complete name: Scream.4.2011.TS.XVID.AC3.HQ.Hive-CM8.avi
Format: AVI
Format/Info: Audio Video Interleave
File size: 1.49 GiB
Duration: 1h 43mn
Overall bit rate: 2 066 Kbps
Writing application: Nandub v1.0rc2
Writing library: Nandub build 1853/release

Video
ID: 0
Format: MPEG-4 Visual
Format profile: Advanced Simple@L5
Format settings, BVOP: Yes
Format settings, QPel: Yes
Format settings, GMC: No warppoints
Format settings, Matrix: Default (H.263)
Muxing mode: Packed bitstream
Codec ID: XVID
Codec ID/Hint: XviD
Duration: 1h 43mn
Bit rate: 1 800 Kbps
Width: 720 pixels
Height: 296 pixels
Display aspect ratio: 2.40:1
Frame rate: 25.000 fps
Color space: YUV
Chroma subsampling: 4:2:0
Bit depth: 8 bits
Scan type: Progressive
Bits/(Pixel*Frame): 0.338
Stream size: 1.30 GiB (87%)
Writing library: XviD 1.2.1 (UTC 2008-12-04)

Audio
ID: 1
Format: AC-3
Format/Info: Audio Coding 3
Mode extension: CM (complete main)
Codec ID: 2000
Duration: 1h 43mn
Bit rate mode: Constant
Bit rate: 256 Kbps
Channel(s): 2 channels
Channel positions: Front: L R
Sampling rate: 48.0 KHz
Bit depth: 16 bits
Stream size: 189 MiB (12%)
Alignment: Split accross interleaves
Interleave, duration: 40 ms (1.00 video frame)
Interleave, preload duration: 500 ms

Lucy Hale ... Sherrie
Shenae Grimes ... Trudie
Anna Paquin ... Rachel
Kristen Bell ... Chloe
Aimee Teegarden ... Jenny Randall
Brittany Robertson ... Marnie Cooper
Neve Campbell ... Sidney Prescott
Alison Brie ... Rebecca Walters
David Arquette ... Dewey Riley
Courteney Cox ... Gale Weathers-Riley
Hayden Panettiere ... Kirby Reed
Emma Roberts ... Jill Roberts
Marielle Jaffe ... Olivia Morris

Ten years have passed, and Sidney Prescott, who has put herself back
together thanks in part to her writing, is visited by the Ghostface Killer


[/code]

[img]http://img861.imageshack.us/img861/1772/scsct.png[/img]
[img]http://img535.imageshack.us/img535/7395/scscsc.png[/img]
[img]http://img847.imageshack.us/img847/7973/scscscsc.png[/img]
[img]http://img98.imageshack.us/img98/1827/scscscscscscsc.png[/img]